<svg xmlns="http://www.w3.org/2000/svg" viewBox="0 0 973.82 926.07"><g id="Layer_2" data-name="Layer 2"><g id="Body"><path d="M958.56,347.5,646,34C585.06-11,389.08-12,328.89,35L15.36,347.65a52.57,52.57,0,0,0,0,74.27h0a52.72,52.72,0,0,0,74.18,0L349.38,162.84V387.17h0V876.25a48.47,48.47,0,0,0,48.33,48.33h8.45a48.48,48.48,0,0,0,48.34-48.33V435.51h64.69V877.74a48.47,48.47,0,0,0,48.33,48.33H576a48.47,48.47,0,0,0,48.33-48.33V387.18h0V160.93l260,260.75a52.54,52.54,0,0,0,74.26,0h0A52.72,52.72,0,0,0,958.56,347.5Z"/></g></g></svg>