<svg xmlns="http://www.w3.org/2000/svg" xmlns:xlink="http://www.w3.org/1999/xlink" viewBox="0 0 928 880.05"><defs><style>.cls-1{fill:#fff;}.cls-2{mask:url(#mask);}.cls-3{filter:url(#luminosity-invert-noclip);}</style><filter id="luminosity-invert-noclip" x="0" y="-29" width="928" height="909.05" filterUnits="userSpaceOnUse" color-interpolation-filters="sRGB"><feColorMatrix values="-1 0 0 0 1 0 -1 0 0 1 0 0 -1 0 1 0 0 0 1 0" result="invert"/><feFlood flood-color="#fff" result="bg"/><feBlend in="invert" in2="bg"/></filter><mask id="mask" x="0" y="-29" width="928" height="909.05" maskUnits="userSpaceOnUse"><g class="cls-3"><path d="M788.14,449.83C769.63,297.73,645.42,203.23,464,203.23c-198.31,0-289.27,72.49-324.43,258.52l-7.45,39.44-20.24-34.66c-20.35-34.85-35.41-95.11-39.31-157.28-2.5-40-2.43-114.54,26.19-164.4,16.92-29.46,41.5-45,71.08-45,24.54,0,52.42,10.91,83.07,32.48,13.84-44.55,40.82-80.93,79-106.1C371.69-.1,423.05-14,480.38-14,540.56-14,605.08,1.65,662,30.06,723,60.45,772.6,103.5,805.5,154.55c26.7,41.42,41.76,86.9,44.76,135.19,3.28,52.78-8,108.12-33.57,164.48L794.6,502.93Z"/><path class="cls-1" d="M480.38,1C680.57,1,925.3,178.37,803,448,785.22,301.7,666,188.23,464,188.23c-212.2,0-304.33,86.37-339.17,270.73-51.5-88.2-63.83-344.18,45-344.15,24.32,0,54.7,12.79,92,43.08C283.63,49.27,375.94,1,480.38,1m0-30v0c-60.27,0-114.49,14.76-156.79,42.67a206.77,206.77,0,0,0-58,57.11,211,211,0,0,0-20.45,38.51A213.73,213.73,0,0,0,223.43,97.7c-18.73-8.55-36.76-12.89-53.58-12.89h0A88.8,88.8,0,0,0,119.36,100c-13.14,8.84-24.44,21.42-33.6,37.37C55.18,190.61,55,268.49,57.6,310.17c4.1,65.34,19.54,126.62,41.33,163.92l40.48,69.32,14.9-78.87C187.81,287.29,274.63,218.23,464,218.23c173.23,0,291.73,89.44,309.25,233.42l12.92,106.19,44.18-97.43c26.58-58.61,38.31-116.34,34.88-171.6-3.16-50.88-19-98.78-47.12-142.38-34.36-53.32-86-98.2-149.37-129.8a441.86,441.86,0,0,0-92.87-33.91A406.25,406.25,0,0,0,480.38-29Z"/></g></mask></defs><g id="Layer_2" data-name="Layer 2"><g id="hair"><g id="blair"><g class="cls-2"><circle cx="464" cy="523.05" r="357"/><rect y="411.41" width="928" height="226" rx="102.61"/><path d="M803,448h0c186.05-410.32-477.68-607-541.16-290.13h0C57.48-8,61.82,351.05,124.83,459h0C159.67,274.6,251.8,188.23,464,188.23,666,188.23,785.22,301.7,803,448Z"/><path d="M480.38,1C680.57,1,925.3,178.37,803,448,785.22,301.7,666,188.23,464,188.23c-212.2,0-304.33,86.37-339.17,270.73-51.5-88.2-63.83-344.18,45-344.15,24.32,0,54.7,12.79,92,43.08C283.63,49.27,375.94,1,480.38,1m0-1C425.8,0,377.11,13.1,339.57,37.88A177.82,177.82,0,0,0,289.67,87c-13.52,20.07-23.09,43.31-28.46,69.09-34.87-28-65.6-42.26-91.37-42.27h0c-24.62,0-44.44,12.78-58.91,38C91.33,185.89,82.45,243,86.55,308.36c3.76,60.13,18.1,118,37.42,151.11l1.35,2.31.5-2.63C162,267.43,260,189.23,464,189.23c186.21,0,318.89,101.63,338,258.91l.43,3.54,1.48-3.25c59.5-131.22,27.29-228.12-10.2-286.29C762.19,113.2,714.5,71.86,655.8,42.59,600.73,15.12,538.43,0,480.38,0Z"/><circle cx="464" cy="523.05" r="357"/><rect y="411.41" width="928" height="226" rx="102.61"/><path d="M803,448h0c186.05-410.32-477.68-607-541.16-290.13h0C57.48-8,61.82,351.05,124.83,459h0C159.67,274.6,251.8,188.23,464,188.23,666,188.23,785.22,301.7,803,448Z"/></g></g></g></g></svg>