<svg xmlns="http://www.w3.org/2000/svg" xmlns:xlink="http://www.w3.org/1999/xlink" viewBox="0 0 928 714"><defs><style>.cls-1{fill:#fff;filter:url(#luminosity-invert-noclip);}.cls-2{mask:url(#mask);}</style><filter id="luminosity-invert-noclip" x="0" y="0" width="928" height="714" filterUnits="userSpaceOnUse" color-interpolation-filters="sRGB"><feColorMatrix values="-1 0 0 0 1 0 -1 0 0 1 0 0 -1 0 1 0 0 0 1 0" result="invert"/><feFlood flood-color="#fff" result="bg"/><feBlend in="invert" in2="bg"/></filter><mask id="mask" x="0" y="0" width="928" height="714" maskUnits="userSpaceOnUse"><polygon class="cls-1" points="801.31 207.24 754.85 238.84 696.21 163.9 617.35 196.06 539.87 113.81 464 168.99 388.13 113.81 310.65 196.06 231.79 163.9 173.15 238.84 126.69 207.24 109.82 232.05 179.49 279.42 241.44 200.24 318.37 231.61 391.86 153.61 463.7 205.87 463.91 206.15 464 206.08 464.09 206.15 464.3 205.87 536.14 153.61 609.63 231.61 686.56 200.24 748.51 279.42 818.18 232.05 801.31 207.24"/></mask></defs><g id="Layer_2" data-name="Layer 2"><g id="hair"><g id="messy"><g class="cls-2"><circle cx="464" cy="357" r="357"/><rect y="245.35" width="928" height="226" rx="102.61"/><circle cx="464" cy="357" r="357"/><rect y="245.35" width="928" height="226" rx="102.61"/></g></g></g></g></svg>