<svg xmlns="http://www.w3.org/2000/svg" xmlns:xlink="http://www.w3.org/1999/xlink" viewBox="0 0 928 714"><defs><style>.cls-1{fill:#fff;}.cls-2{fill:none;stroke:#fff;stroke-miterlimit:10;stroke-width:30px;}.cls-3{mask:url(#mask);}.cls-4{filter:url(#luminosity-invert-noclip);}</style><filter id="luminosity-invert-noclip" x="0" y="0" width="928" height="714" filterUnits="userSpaceOnUse" color-interpolation-filters="sRGB"><feColorMatrix values="-1 0 0 0 1 0 -1 0 0 1 0 0 -1 0 1 0 0 0 1 0" result="invert"/><feFlood flood-color="#fff" result="bg"/><feBlend in="invert" in2="bg"/></filter><mask id="mask" x="0" y="0" width="928" height="714" maskUnits="userSpaceOnUse"><g class="cls-4"><path class="cls-1" d="M464,577c78.42,0,142-47.11,142-105.22H322C322,529.89,385.58,577,464,577Z"/><circle class="cls-1" cx="310" cy="320" r="99.45"/><circle class="cls-1" cx="618" cy="320" r="99.45"/><path class="cls-2" d="M118.64,218.7C201.76,192.26,270.07,143.9,322,97.15c40.12,57.29,124.08,105,202.32,109.94,0,0,12-44.91,25.55-98.33,0,0,111.48,75.1,249.29,91.36"/></g></mask></defs><g id="Layer_2" data-name="Layer 2"><g id="head"><g class="cls-3"><circle class="cls-1" cx="464" cy="357" r="357"/><rect class="cls-1" y="245.35" width="928" height="226" rx="102.61"/><circle cx="464" cy="357" r="357"/><rect y="245.35" width="928" height="226" rx="102.61"/></g></g></g></svg>