<svg xmlns="http://www.w3.org/2000/svg" viewBox="0 0 1000.12 546.23"><g id="Layer_2" data-name="Layer 2"><g id="Jacket"><path d="M985,361.1,680.64,56.74v-2h-3.91c-19.11-2.88-40.55-5.18-63.41-6.9C598.84,20.2,553.67,0,500.18,0c-53.64,0-98.91,20.31-113.27,48.12-22.51,1.7-43.73,3.93-62.82,6.67a43.89,43.89,0,0,1-4.67,0V56.4L15.12,360.7a51.62,51.62,0,0,0,0,73l32.45,32.45a51.62,51.62,0,0,0,73,0L319.42,267.3V481.18a65,65,0,0,0,65,65.05H615.59a65.05,65.05,0,0,0,65-65.05V267.63L879.56,466.55a51.6,51.6,0,0,0,73,0L985,434.1A51.63,51.63,0,0,0,985,361.1ZM499.86,206.27l-81.34-158h.15c40.59-13.47,121.79-12.77,162.38,0h.15Z"/></g></g></svg>