<svg xmlns="http://www.w3.org/2000/svg" viewBox="0 0 963.84 770.77"><g id="Layer_2" data-name="Layer 2"><g id="Shirt"><path d="M613.87.42a136.2,136.2,0,0,1-132,102.66A136.21,136.21,0,0,1,349.88.42H198.76V676.87a93.91,93.91,0,0,0,93.9,93.9H671.09a93.9,93.9,0,0,0,93.9-93.9V.42Z"/><path d="M27.16,54.6h275.9a0,0,0,0,1,0,0V261.68a68.79,68.79,0,0,1-68.79,68.79H95.95a68.79,68.79,0,0,1-68.79-68.79V54.6A0,0,0,0,1,27.16,54.6Z" transform="translate(228.12 -53.15) rotate(55)"/><path d="M660.94,54.1h275.7a0,0,0,0,1,0,0V261.19A68.79,68.79,0,0,1,867.85,330H729.73a68.79,68.79,0,0,1-68.79-68.79V54.1a0,0,0,0,1,0,0Z" transform="matrix(0.57, -0.82, 0.82, 0.57, 183.32, 736.22)"/></g></g></svg>