<svg xmlns="http://www.w3.org/2000/svg" xmlns:xlink="http://www.w3.org/1999/xlink" viewBox="0 0 897.42 295.93"><defs><style>.cls-1,.cls-2{fill:none;}.cls-2{stroke:#000;stroke-miterlimit:10;stroke-width:50px;}.cls-3{clip-path:url(#clip-path);}.cls-4{clip-path:url(#clip-path-2);}</style><clipPath id="clip-path" transform="translate(0)"><rect class="cls-1" x="478.46" width="418.96" height="295.93"/></clipPath><clipPath id="clip-path-2" transform="translate(0)"><rect class="cls-1" width="418.96" height="295.93"/></clipPath></defs><g id="Layer_2" data-name="Layer 2"><g id="Glasses_Options" data-name="Glasses Options"><line class="cls-2" x1="398.37" y1="151.34" x2="497.03" y2="151.34"/><g class="cls-3"><path d="M817.42,50a30,30,0,0,1,30,30V215.93a30,30,0,0,1-30,30h-259a30,30,0,0,1-30-30V80a30,30,0,0,1,30-30h259m0-50h-259a80.09,80.09,0,0,0-80,80V215.93a80.09,80.09,0,0,0,80,80h259a80.09,80.09,0,0,0,80-80V80a80.09,80.09,0,0,0-80-80Z" transform="translate(0)"/></g><g class="cls-4"><path d="M339,50a30,30,0,0,1,30,30V215.93a30,30,0,0,1-30,30H80a30,30,0,0,1-30-30V80A30,30,0,0,1,80,50H339m0-50H80A80.09,80.09,0,0,0,0,80V215.93a80.09,80.09,0,0,0,80,80H339a80.09,80.09,0,0,0,80-80V80A80.09,80.09,0,0,0,339,0Z" transform="translate(0)"/></g></g></g></svg>