<svg xmlns="http://www.w3.org/2000/svg" xmlns:xlink="http://www.w3.org/1999/xlink" viewBox="0 0 969.6 363.77"><defs><style>.cls-1,.cls-2,.cls-4{fill:none;}.cls-2,.cls-4{stroke:#000;stroke-miterlimit:10;}.cls-2{stroke-width:50px;}.cls-3{clip-path:url(#clip-path);}.cls-4{stroke-width:40px;}.cls-5{clip-path:url(#clip-path-2);}.cls-6{clip-path:url(#clip-path-3);}.cls-7{clip-path:url(#clip-path-4);}</style><clipPath id="clip-path" transform="translate(0)"><rect class="cls-1" x="520.75" width="448.85" height="363.77"/></clipPath><clipPath id="clip-path-2" transform="translate(0)"><rect class="cls-1" width="448.85" height="363.77"/></clipPath><clipPath id="clip-path-3" transform="translate(0)"><rect class="cls-1" x="538.16" y="17.08" width="399.88" height="344.94"/></clipPath><clipPath id="clip-path-4" transform="translate(0)"><rect class="cls-1" x="31.57" y="17.08" width="399.88" height="344.94"/></clipPath></defs><g id="Layer_2" data-name="Layer 2"><g id="Layer_15" data-name="Layer 15"><path class="cls-2" d="M418.83,167c0-37,127-37,127,0" transform="translate(0)"/><g class="cls-3"><path class="cls-4" d="M543.16,185.26C521.69,89.05,649,42.78,715.66,30.76c135.41-24.4,232.83.32,232.83.32S926.61,345.36,721.66,343.76C623.08,343.76,560.15,261.41,543.16,185.26Z" transform="translate(0)"/></g><g class="cls-5"><path class="cls-4" d="M426.44,185.26c21.47-96.21-105.83-142.48-172.5-154.5-135.41-24.4-232.83.32-232.83.32S43,345.36,247.94,343.76C346.52,343.76,409.45,261.41,426.44,185.26Z" transform="translate(0)"/></g><g class="cls-6"><path class="cls-4" d="M558.83,167.93C567.12,79.81,662.59,41.84,727.56,38.46,877.56,30.64,929,55,911.4,139.2c-18.83,90.06-82.85,219.39-216.88,201.07C600.66,328.19,551.75,243.23,558.83,167.93Z" transform="translate(0)"/><path class="cls-4" d="M905.78,34.13A52.44,52.44,0,0,0,927,63.08" transform="translate(0)"/></g><g class="cls-7"><path class="cls-4" d="M410.77,167.93C402.48,79.81,307,41.84,242,38.46,92,30.64,40.6,55,58.2,139.2,77,229.26,141.05,358.59,275.08,340.27,368.94,328.19,417.85,243.23,410.77,167.93Z" transform="translate(0)"/><path class="cls-4" d="M63.83,34.13a52.5,52.5,0,0,1-21.2,28.95" transform="translate(0)"/></g></g></g></svg>