<svg xmlns="http://www.w3.org/2000/svg" xmlns:xlink="http://www.w3.org/1999/xlink" viewBox="0 0 928 797.79"><defs><style>.cls-1{fill:#fff;filter:url(#luminosity-invert-noclip);}.cls-2{mask:url(#mask);}</style><filter id="luminosity-invert-noclip" x="0" y="0" width="928" height="842.66" filterUnits="userSpaceOnUse" color-interpolation-filters="sRGB"><feColorMatrix values="-1 0 0 0 1 0 -1 0 0 1 0 0 -1 0 1 0 0 0 1 0" result="invert"/><feFlood flood-color="#fff" result="bg"/><feBlend in="invert" in2="bg"/></filter><mask id="mask" x="0" y="0" width="928" height="842.66" maskUnits="userSpaceOnUse"><path class="cls-1" d="M582.79,225.18c37.79,45.57,91.42,79.43,119.46,95.29C686,504.15,703.52,642.22,754.53,731a247.19,247.19,0,0,0,27.6,39.19L466,812.39,144.62,770a243.14,243.14,0,0,0,24.69-34.32c48.75-81.33,66.32-204,52.3-364.72,29.65-14.36,87.81-45.05,147.19-90.58l3.76,12.83,7,23.88,24.76-2.48c4.63-.46,102.55-11.17,178.46-89.39m2.3-49.36c-70.19,97.55-183.74,108.9-183.74,108.9l-16.52-56.26c-91.35,80-195.09,124.13-195.09,124.13C230.38,749.75,66.94,790,66.94,790l399.12,52.7,395-52.7S688.7,755.17,734,303.43c0,0-108.12-52.77-148.9-127.61Z"/></mask></defs><g id="Layer_2" data-name="Layer 2"><g id="hair"><g id="long"><g class="cls-2"><circle cx="464" cy="440.79" r="357"/><rect y="329.14" width="928" height="226" rx="102.61"/><path d="M848.31,376.7C845.13,134.16,689.53,2.35,464,0h0C238.47,2.35,82.87,134.16,79.69,376.7c0,0,.11,318.86-12.75,413.26,0,0,163.44-40.21,122.8-437.37,0,0,103.74-44.13,195.09-124.13l16.52,56.26s113.55-11.35,183.74-108.9h0C625.87,250.66,734,303.43,734,303.43,688.7,755.17,861.06,790,861.06,790,848.2,695.56,848.31,376.7,848.31,376.7Z"/><circle cx="464" cy="440.79" r="357"/><rect y="329.14" width="928" height="226" rx="102.61"/><path d="M848.31,376.7C845.13,134.16,689.53,2.35,464,0h0C238.47,2.35,82.87,134.16,79.69,376.7c0,0,.11,318.86-12.75,413.26,0,0,163.44-40.21,122.8-437.37,0,0,103.74-44.13,195.09-124.13l16.52,56.26s113.55-11.35,183.74-108.9h0C625.87,250.66,734,303.43,734,303.43,688.7,755.17,861.06,790,861.06,790,848.2,695.56,848.31,376.7,848.31,376.7Z"/></g></g></g></g></svg>